<?xml version="1.0" encoding="utf-8"?>
<!-- Generator: Adobe Illustrator 25.0.0, SVG Export Plug-In . SVG Version: 6.00 Build 0)  -->
<svg version="1.1" id="Layer_1" xmlns="http://www.w3.org/2000/svg" xmlns:xlink="http://www.w3.org/1999/xlink" x="0px" y="0px"
	 viewBox="0 0 243 78" style="enable-background:new 0 0 243 78;" xml:space="preserve">
<style type="text/css">
	.st0{fill-rule:evenodd;clip-rule:evenodd;fill:#010101;}
	.st1{fill:#FFFFFF;}
</style>
<g>
	<path class="st0" d="M36.51,11.96c14.67,0,26.57,11.9,26.57,26.57c0,14.67-11.9,26.57-26.57,26.57c-14.67,0-26.57-11.9-26.57-26.57
		C9.94,23.86,21.84,11.96,36.51,11.96L36.51,11.96z"/>
	<g>
		<path class="st1" d="M28.66,32.5c1.47-2.55,3.92-4.54,6.99-5.36c6.14-1.65,12.45,2,14.1,8.14c1.64,6.14-2,12.45-8.14,14.09
			c-6.14,1.64-12.45-2-14.1-8.14C26.69,38.17,27.19,35.05,28.66,32.5L28.66,32.5z M36.16,29.02c-2.55,0.68-4.59,2.33-5.81,4.45
			c-1.22,2.12-1.64,4.71-0.96,7.26c0.68,2.55,2.34,4.58,4.46,5.81c2.12,1.22,4.7,1.64,7.26,0.96c2.55-0.68,4.58-2.33,5.81-4.46
			c1.22-2.12,1.64-4.7,0.96-7.26c-0.68-2.55-2.33-4.58-4.46-5.81C41.29,28.75,38.71,28.33,36.16,29.02L36.16,29.02z"/>
		<path class="st1" d="M38.07,22.85c2.86,0,5.65,0.73,8.09,2.08c2.41,1.33,4.47,3.26,5.94,5.68c0.7,1.16,1.24,2.4,1.6,3.69
			c0.36,1.28,0.55,2.61,0.55,3.96c0,1.35-0.18,2.68-0.55,3.96c-0.36,1.29-0.9,2.53-1.6,3.69c-1.47,2.42-3.53,4.35-5.94,5.68
			c-2.44,1.35-5.23,2.08-8.09,2.08v0H26.03h0l0,0h-0.01h0c-0.81-0.01-1.53-0.33-2.07-0.84c-0.54-0.53-0.88-1.26-0.92-2.07l0,0v-0.02
			c0-0.01,0-0.02,0-0.02h0V25.89c0-0.02,0-0.05,0.01-0.07c0.03-0.84,0.34-1.56,0.86-2.08c0.53-0.53,1.26-0.85,2.12-0.89l0.02,0
			c0.01,0,0.01,0,0.02,0v0H38.07L38.07,22.85z M38.07,24.8h-12c-0.01,0-0.01,0-0.01,0c-0.34,0.02-0.6,0.13-0.78,0.31
			c-0.19,0.19-0.29,0.46-0.31,0.8h0v24.77v0.01c0.02,0.3,0.14,0.55,0.32,0.73c0.19,0.19,0.46,0.31,0.74,0.31h12.04v0
			c3.92,0,7.48-1.52,10.06-3.96c2.57-2.44,4.17-5.8,4.17-9.5c0-3.7-1.6-7.06-4.17-9.5C45.55,26.32,41.99,24.8,38.07,24.8L38.07,24.8
			z"/>
	</g>
	<path class="st0" d="M228.17,19.11v-1.38h-0.51v-0.18h1.24v0.18h-0.51v1.38H228.17L228.17,19.11z M229.1,19.11v-1.56h0.31
		l0.37,1.11c0.03,0.1,0.06,0.18,0.07,0.23c0.02-0.06,0.05-0.14,0.08-0.25l0.37-1.09h0.28v1.56h-0.2V17.8l-0.46,1.31h-0.19
		l-0.46-1.33v1.33H229.1L229.1,19.11z M229.12,15.79c1.34,0,2.43,1.09,2.43,2.43c0,1.34-1.09,2.43-2.43,2.43
		c-1.34,0-2.43-1.09-2.43-2.43C226.69,16.88,227.78,15.79,229.12,15.79L229.12,15.79z M229.12,16.01c1.22,0,2.21,0.99,2.21,2.22
		c0,1.22-0.99,2.22-2.21,2.22c-1.23,0-2.22-0.99-2.22-2.22C226.9,17,227.89,16.01,229.12,16.01L229.12,16.01z"/>
	<g>
		<path class="st0" d="M83.65,20.52c-1.46,0-2.98,0-4.57,0c-1.59,0-3.18,0-4.77,0c-1.59,0-3.11,0-4.58,0V56c1.46,0,2.99,0,4.58,0
			c1.59,0,3.18,0,4.77,0c1.59,0,3.12,0,4.57,0c2.48-0.01,4.68-0.35,6.62-1.01c1.93-0.67,3.6-1.58,5.02-2.75
			c1.41-1.17,2.57-2.52,3.48-4.05c0.91-1.54,1.57-3.16,2-4.91c0.42-1.74,0.63-3.52,0.59-5.32c-0.02-1.77-0.27-3.49-0.73-5.19
			c-0.46-1.69-1.15-3.27-2.06-4.74c-0.92-1.48-2.08-2.78-3.48-3.89c-1.39-1.12-3.04-2.01-4.94-2.64
			C88.24,20.86,86.08,20.53,83.65,20.52L83.65,20.52z M76.36,26.84h7.29c1.54,0.01,2.9,0.21,4.09,0.62c1.19,0.4,2.23,0.97,3.09,1.69
			c0.87,0.71,1.59,1.54,2.15,2.47c0.57,0.94,1,1.94,1.28,3.01c0.29,1.07,0.45,2.16,0.47,3.27c0.03,1.16-0.07,2.31-0.32,3.43
			c-0.24,1.12-0.65,2.19-1.2,3.17c-0.55,0.99-1.26,1.87-2.14,2.62c-0.88,0.75-1.93,1.35-3.17,1.78c-1.23,0.43-2.65,0.65-4.26,0.66
			h-7.29V26.84L76.36,26.84z"/>
		<path class="st0" d="M110.82,40.47c0.84-2.91,3.89-5.2,6.96-4.99c3.29,0.23,5.52,2.05,6.54,4.99H110.82L110.82,40.47z
			 M130.53,44.29c0.21-4.09-1.14-7.72-3.88-10.37c-2.35-2.27-5.72-3.81-9.02-3.81c-2.3,0.01-4.48,0.47-6.42,1.49
			c-2.8,1.46-5.05,4.09-6.18,7.02c-0.57,1.46-0.87,3.04-0.88,4.71c0.01,2.82,0.95,5.67,2.64,7.93c0.89,1.17,1.95,2.16,3.19,2.99
			c1.42,0.95,2.85,1.57,4.51,1.93c2.46,0.53,5.03,0.49,7.48-0.06c1.32-0.31,2.57-0.75,3.76-1.35c1.18-0.6,2.21-1.36,3.11-2.27
			l-3.09-3.05c-0.12-0.1-0.73-0.66-1.61-0.22c-0.06,0.03-0.12,0.07-0.17,0.1c-1,0.66-2.2,1.06-3.35,1.32
			c-0.85,0.18-1.66,0.28-2.44,0.28c-1.46-0.01-2.72-0.24-3.78-0.69c-1.07-0.46-1.91-1.08-2.54-1.88c-0.62-0.8-1-1.72-1.14-2.76h18.4
			C129.37,45.58,130.46,45.53,130.53,44.29L130.53,44.29z"/>
	</g>
	<polygon class="st0" points="140.22,56.28 140.22,43.13 158.04,43.13 158.04,36.94 140.22,36.94 140.22,27.24 159.06,27.24 
		159.06,20.8 133.52,20.8 133.52,56.28 140.22,56.28 	"/>
	<path class="st0" d="M196.42,56.28V43.13c-0.01-1.97-0.29-3.71-0.83-5.24c-0.54-1.52-1.31-2.81-2.27-3.86
		c-0.97-1.04-2.09-1.84-3.37-2.38c-1.29-0.54-2.66-0.81-4.15-0.81c-1.56,0-3,0.31-4.34,0.95c-1.33,0.63-2.63,1.56-3.88,2.81
		l-0.24-1.98c-0.01-0.13-0.03-0.26-0.06-0.39c-0.14-0.51-0.51-0.87-1.04-0.99c-0.18-0.04-0.35-0.05-0.54-0.05h-4.06v25.08h6.15
		V43.49c0-0.96,0.16-1.87,0.46-2.7c0.31-0.84,0.74-1.59,1.3-2.23c0.57-0.64,1.24-1.15,2.02-1.51c0.77-0.36,1.65-0.55,2.6-0.56
		c1.32,0.01,2.43,0.31,3.33,0.89c0.9,0.58,1.57,1.38,2.03,2.38c0.46,1,0.68,2.14,0.68,3.43v13.1H196.42L196.42,56.28z"/>
	<path class="st0" d="M212.75,36.43c0.98,0,1.91,0.18,2.78,0.52c0.87,0.35,1.64,0.84,2.31,1.49c0.67,0.65,1.2,1.42,1.58,2.31
		c0.38,0.9,0.58,1.89,0.59,2.98c-0.01,1.14-0.21,2.15-0.59,3.05c-0.38,0.91-0.9,1.68-1.58,2.32c-0.67,0.65-1.44,1.13-2.31,1.47
		c-0.87,0.34-1.8,0.52-2.78,0.52c-1,0-1.92-0.19-2.78-0.53c-0.85-0.35-1.61-0.85-2.26-1.5c-0.64-0.65-1.15-1.43-1.51-2.33
		c-0.36-0.9-0.54-1.9-0.55-3c0.01-1.13,0.18-2.15,0.55-3.04c0.36-0.91,0.87-1.67,1.51-2.3c0.65-0.64,1.4-1.13,2.26-1.46
		C210.83,36.6,211.75,36.43,212.75,36.43L212.75,36.43z M220.41,20.8v13.85c-0.38-0.65-0.89-1.22-1.53-1.71
		c-0.65-0.5-1.36-0.92-2.14-1.26c-0.79-0.34-1.57-0.59-2.36-0.77c-0.79-0.18-1.52-0.26-2.19-0.26c-1.83,0-3.53,0.28-5.08,0.83
		c-1.55,0.56-2.89,1.39-4.03,2.48c-1.14,1.1-2.03,2.47-2.66,4.1c-0.63,1.63-0.96,3.53-0.96,5.68c0.01,2.06,0.34,3.9,0.98,5.52
		c0.64,1.62,1.55,2.98,2.71,4.11c1.16,1.13,2.52,1.99,4.09,2.58c1.56,0.58,3.27,0.88,5.12,0.89c1.02,0.01,2.03-0.12,3.02-0.37
		c0.99-0.25,1.91-0.68,2.77-1.27c0.87-0.58,1.63-1.38,2.28-2.37l0.26,2.21c0.08,0.64,0.5,1.05,1,1.19c0.22,0.06,0.44,0.05,0.67,0.05
		h4.26V20.8H220.41L220.41,20.8z"/>
	<path class="st0" d="M168.46,31.15v25.12h-6.19V31.15H168.46L168.46,31.15z M165.37,20.8c-1.98,0-3.59,1.6-3.59,3.58
		s1.61,3.59,3.59,3.59c1.98,0,3.59-1.61,3.59-3.59S167.35,20.8,165.37,20.8z"/>
</g>
</svg>
