{
  "accessors": [
    {
      "bufferView": 2,
      "componentType": 5126,
      "count": 1396,
      "max": [
        1.042847990989685,
        1.0428478717803955,
        0.00951002910733223
      ],
      "min": [
        -1.042847990989685,
        -1.0428478717803955,
        -0.9142665266990662
      ],
      "type": "VEC3"
    },
    {
      "bufferView": 2,
      "byteOffset": 16752,
      "componentType": 5126,
      "count": 1396,
      "max": [
        0.999998927116394,
        0.999998927116394,
        0.9993234872817993
      ],
      "min": [
        -0.999998927116394,
        -0.999998927116394,
        -1.0
      ],
      "type": "VEC3"
    },
    {
      "bufferView": 1,
      "componentType": 5126,
      "count": 1396,
      "max": [
        0.5094459652900696,
        0.9667289853096008
      ],
      "min": [
        0.022694271057844162,
        0.023305097594857216
      ],
      "type": "VEC2"
    },
    {
      "bufferView": 1,
      "byteOffset": 11168,
      "componentType": 5126,
      "count": 1396,
      "max": [
        0.5094459652900696,
        0.9667289853096008
      ],
      "min": [
        0.022694271057844162,
        0.023305097594857216
      ],
      "type": "VEC2"
    },
    {
      "bufferView": 0,
      "componentType": 5125,
      "count": 6750,
      "type": "SCALAR"
    },
    {
      "bufferView": 2,
      "byteOffset": 33504,
      "componentType": 5126,
      "count": 3482,
      "max": [
        1.0303653478622437,
        1.5877876281738281,
        0.0409938246011734
      ],
      "min": [
        -1.030365228652954,
        -1.2403414249420166,
        -1.1999013423919678
      ],
      "type": "VEC3"
    },
    {
      "bufferView": 2,
      "byteOffset": 75288,
      "componentType": 5126,
      "count": 3482,
      "max": [
        1.0,
        1.0,
        0.9999794960021973
      ],
      "min": [
        -1.0,
        -1.0,
        -1.0
      ],
      "type": "VEC3"
    },
    {
      "bufferView": 1,
      "byteOffset": 22336,
      "componentType": 5126,
      "count": 3482,
      "max": [
        0.9955289959907532,
        0.9947009682655334
      ],
      "min": [
        0.019266139715909958,
        0.006577834486961365
      ],
      "type": "VEC2"
    },
    {
      "bufferView": 0,
      "byteOffset": 27000,
      "componentType": 5125,
      "count": 15690,
      "type": "SCALAR"
    },
    {
      "bufferView": 2,
      "byteOffset": 117072,
      "componentType": 5126,
      "count": 128,
      "max": [
        0.9697107672691345,
        0.9697107672691345,
        -0.06730435788631439
      ],
      "min": [
        -0.9697108864784241,
        -0.9697108268737793,
        -0.06730438768863678
      ],
      "type": "VEC3"
    },
    {
      "bufferView": 2,
      "byteOffset": 118608,
      "componentType": 5126,
      "count": 128,
      "max": [
        1.2361743984001805e-07,
        7.462818274461824e-08,
        1.0
      ],
      "min": [
        -8.241168103495511e-08,
        -7.462821116632767e-08,
        1.0
      ],
      "type": "VEC3"
    },
    {
      "bufferView": 1,
      "byteOffset": 50192,
      "componentType": 5126,
      "count": 128,
      "max": [
        0.8340319395065308,
        0.9593992233276367
      ],
      "min": [
        0.5152707695960999,
        0.6406380534172058
      ],
      "type": "VEC2"
    },
    {
      "bufferView": 1,
      "byteOffset": 51216,
      "componentType": 5126,
      "count": 128,
      "max": [
        0.8340319395065308,
        0.9593992233276367
      ],
      "min": [
        0.5152707695960999,
        0.6406380534172058
      ],
      "type": "VEC2"
    },
    {
      "bufferView": 0,
      "byteOffset": 89760,
      "componentType": 5125,
      "count": 192,
      "type": "SCALAR"
    },
    {
      "bufferView": 2,
      "byteOffset": 120144,
      "componentType": 5126,
      "count": 1381,
      "max": [
        0.5602685213088989,
        0.1255308985710144,
        0.0063321832567453384
      ],
      "min": [
        -0.12553076446056366,
        -0.4306802451610565,
        -0.14935612678527832
      ],
      "type": "VEC3"
    },
    {
      "bufferView": 2,
      "byteOffset": 136716,
      "componentType": 5126,
      "count": 1381,
      "max": [
        0.9991339445114136,
        0.9991341233253479,
        1.0
      ],
      "min": [
        -0.9991341829299927,
        -0.9991341829299927,
        -1.0
      ],
      "type": "VEC3"
    },
    {
      "bufferView": 1,
      "byteOffset": 52240,
      "componentType": 5126,
      "count": 1381,
      "max": [
        0.9910931587219238,
        0.8620705008506775
      ],
      "min": [
        0.7540994882583618,
        0.5606302618980408
      ],
      "type": "VEC2"
    },
    {
      "bufferView": 1,
      "byteOffset": 63288,
      "componentType": 5126,
      "count": 1381,
      "max": [
        0.9910931587219238,
        0.8620705008506775
      ],
      "min": [
        0.7540994882583618,
        0.5606302618980408
      ],
      "type": "VEC2"
    },
    {
      "bufferView": 0,
      "byteOffset": 90528,
      "componentType": 5125,
      "count": 2718,
      "type": "SCALAR"
    },
    {
      "bufferView": 2,
      "byteOffset": 153288,
      "componentType": 5126,
      "count": 560,
      "max": [
        0.09426108747720718,
        0.09426097571849823,
        -0.02623506635427475
      ],
      "min": [
        -0.8475733995437622,
        -0.09426118433475494,
        -0.029599584639072418
      ],
      "type": "VEC3"
    },
    {
      "bufferView": 2,
      "byteOffset": 160008,
      "componentType": 5126,
      "count": 560,
      "max": [
        0.9967710375785828,
        0.9997618198394775,
        1.0
      ],
      "min": [
        -0.9997618198394775,
        -0.9997709393501282,
        -1.0
      ],
      "type": "VEC3"
    },
    {
      "bufferView": 1,
      "byteOffset": 74336,
      "componentType": 5126,
      "count": 560,
      "max": [
        0.9971557855606079,
        0.8966187834739685
      ],
      "min": [
        0.842387318611145,
        0.6607486009597778
      ],
      "type": "VEC2"
    },
    {
      "bufferView": 0,
      "byteOffset": 101400,
      "componentType": 5125,
      "count": 840,
      "type": "SCALAR"
    },
    {
      "bufferView": 2,
      "byteOffset": 166728,
      "componentType": 5126,
      "count": 32,
      "max": [
        0.8800808191299438,
        0.8800808191299438,
        -0.8452184200286865
      ],
      "min": [
        -0.8800809383392334,
        -0.8800808787345886,
        -0.8452184796333313
      ],
      "type": "VEC3"
    },
    {
      "bufferView": 2,
      "byteOffset": 167112,
      "componentType": 5126,
      "count": 32,
      "max": [
        -1.1248901188309901e-07,
        0.0,
        -1.0
      ],
      "min": [
        -1.1248901188309901e-07,
        0.0,
        -1.0
      ],
      "type": "VEC3"
    },
    {
      "bufferView": 1,
      "byteOffset": 78816,
      "componentType": 5126,
      "count": 32,
      "max": [
        0.0,
        0.0
      ],
      "min": [
        0.0,
        0.0
      ],
      "type": "VEC2"
    },
    {
      "bufferView": 0,
      "byteOffset": 104760,
      "componentType": 5125,
      "count": 90,
      "type": "SCALAR"
    },
    {
      "bufferView": 2,
      "byteOffset": 167496,
      "componentType": 5126,
      "count": 208,
      "max": [
        0.913127601146698,
        0.9131270051002502,
        0.08597397804260254
      ],
      "min": [
        -0.9131277799606323,
        -0.9131285548210144,
        -0.011064764112234116
      ],
      "type": "VEC3"
    },
    {
      "bufferView": 2,
      "byteOffset": 169992,
      "componentType": 5126,
      "count": 208,
      "max": [
        0.7964943647384644,
        0.7964763641357422,
        0.9997011423110962
      ],
      "min": [
        -0.7965503931045532,
        -0.7965301275253296,
        -0.9997053146362305
      ],
      "type": "VEC3"
    },
    {
      "bufferView": 1,
      "byteOffset": 79072,
      "componentType": 5126,
      "count": 208,
      "max": [
        0.8478342294692993,
        0.6166737079620361
      ],
      "min": [
        0.5471678972244263,
        0.010215535759925842
      ],
      "type": "VEC2"
    },
    {
      "bufferView": 1,
      "byteOffset": 80736,
      "componentType": 5126,
      "count": 208,
      "max": [
        0.8478342294692993,
        0.6166737079620361
      ],
      "min": [
        0.5471678972244263,
        0.010215535759925842
      ],
      "type": "VEC2"
    },
    {
      "bufferView": 0,
      "byteOffset": 105120,
      "componentType": 5125,
      "count": 1140,
      "type": "SCALAR"
    }
  ],
  "asset": {
    "extras": {
      "author": "ArtemMedvedev (https://sketchfab.com/medvedprived18)",
      "license": "CC-BY-4.0 (http://creativecommons.org/licenses/by/4.0/)",
      "source": "https://sketchfab.com/3d-models/alarm-clock-vityaz-215a41d8b6d44ecdbd70cc9680c0f585",
      "title": "Alarm-clock VITYAZ(Будильник Витязь)"
    },
    "generator": "Sketchfab-12.67.0",
    "version": "2.0"
  },
  "bufferViews": [
    {
      "buffer": 0,
      "byteLength": 109680,
      "name": "floatBufferViews",
      "target": 34963
    },
    {
      "buffer": 0,
      "byteLength": 82400,
      "byteOffset": 109680,
      "byteStride": 8,
      "name": "floatBufferViews",
      "target": 34962
    },
    {
      "buffer": 0,
      "byteLength": 172488,
      "byteOffset": 192080,
      "byteStride": 12,
      "name": "floatBufferViews",
      "target": 34962
    }
  ],
  "buffers": [
    {
      "byteLength": 364568,
      "uri": "scene.bin"
    }
  ],
  "extensionsUsed": [
    "KHR_materials_transmission"
  ],
  "images": [
    {
      "uri": "textures/korpus_baseColor.png"
    },
    {
      "uri": "textures/korpus_metallicRoughness.png"
    },
    {
      "uri": "textures/hrom_baseColor.png"
    },
    {
      "uri": "textures/hrom_metallicRoughness.png"
    },
    {
      "uri": "textures/ciferblat_baseColor.png"
    },
    {
      "uri": "textures/ciferblat_metallicRoughness.png"
    },
    {
      "uri": "textures/chasovaya_baseColor.png"
    },
    {
      "uri": "textures/chasovaya_metallicRoughness.png"
    },
    {
      "uri": "textures/minutnaya_baseColor.png"
    },
    {
      "uri": "textures/minutnaya_metallicRoughness.png"
    },
    {
      "uri": "textures/steklo_baseColor.png"
    },
    {
      "uri": "textures/steklo_metallicRoughness.png"
    },
    {
      "uri": "textures/steklo_transmission.png"
    }
  ],
  "materials": [
    {
      "doubleSided": true,
      "name": "korpus",
      "pbrMetallicRoughness": {
        "baseColorTexture": {
          "index": 0
        },
        "metallicRoughnessTexture": {
          "index": 1
        }
      }
    },
    {
      "doubleSided": true,
      "name": "hrom",
      "pbrMetallicRoughness": {
        "baseColorTexture": {
          "index": 2
        },
        "metallicRoughnessTexture": {
          "index": 3
        }
      }
    },
    {
      "doubleSided": true,
      "name": "ciferblat",
      "pbrMetallicRoughness": {
        "baseColorTexture": {
          "index": 4
        },
        "metallicRoughnessTexture": {
          "index": 5
        }
      }
    },
    {
      "doubleSided": true,
      "name": "chasovaya",
      "pbrMetallicRoughness": {
        "baseColorTexture": {
          "index": 6
        },
        "metallicRoughnessTexture": {
          "index": 7
        }
      }
    },
    {
      "doubleSided": true,
      "name": "minutnaya",
      "pbrMetallicRoughness": {
        "baseColorTexture": {
          "index": 8
        },
        "metallicFactor": 0.0,
        "metallicRoughnessTexture": {
          "index": 9
        }
      }
    },
    {
      "doubleSided": true,
      "name": "Material",
      "pbrMetallicRoughness": {
        "baseColorFactor": [
          0.0,
          0.0,
          0.0,
          1.0
        ],
        "metallicFactor": 0.0
      }
    },
    {
      "alphaMode": "BLEND",
      "doubleSided": true,
      "extensions": {
        "KHR_materials_transmission": {
          "transmissionFactor": 1.0,
          "transmissionTexture": {
            "index": 12
          }
        }
      },
      "name": "steklo",
      "pbrMetallicRoughness": {
        "baseColorTexture": {
          "index": 10
        },
        "metallicRoughnessTexture": {
          "index": 11
        }
      }
    }
  ],
  "meshes": [
    {
      "name": "BUDILNIK_korpus_0",
      "primitives": [
        {
          "attributes": {
            "NORMAL": 1,
            "POSITION": 0,
            "TEXCOORD_0": 2,
            "TEXCOORD_1": 3
          },
          "indices": 4,
          "material": 0,
          "mode": 4
        }
      ]
    },
    {
      "name": "BUDILNIK_hrom_0",
      "primitives": [
        {
          "attributes": {
            "NORMAL": 6,
            "POSITION": 5,
            "TEXCOORD_0": 7
          },
          "indices": 8,
          "material": 1,
          "mode": 4
        }
      ]
    },
    {
      "name": "BUDILNIK_ciferblat_0",
      "primitives": [
        {
          "attributes": {
            "NORMAL": 10,
            "POSITION": 9,
            "TEXCOORD_0": 11,
            "TEXCOORD_1": 12
          },
          "indices": 13,
          "material": 2,
          "mode": 4
        }
      ]
    },
    {
      "name": "BUDILNIK_chasovaya_0",
      "primitives": [
        {
          "attributes": {
            "NORMAL": 15,
            "POSITION": 14,
            "TEXCOORD_0": 16,
            "TEXCOORD_1": 17
          },
          "indices": 18,
          "material": 3,
          "mode": 4
        }
      ]
    },
    {
      "name": "BUDILNIK_minutnaya_0",
      "primitives": [
        {
          "attributes": {
            "NORMAL": 20,
            "POSITION": 19,
            "TEXCOORD_0": 21
          },
          "indices": 22,
          "material": 4,
          "mode": 4
        }
      ]
    },
    {
      "name": "BUDILNIK_Material_0",
      "primitives": [
        {
          "attributes": {
            "NORMAL": 24,
            "POSITION": 23,
            "TEXCOORD_0": 25
          },
          "indices": 26,
          "material": 5,
          "mode": 4
        }
      ]
    },
    {
      "name": "BUDILNIK_steklo_0",
      "primitives": [
        {
          "attributes": {
            "NORMAL": 28,
            "POSITION": 27,
            "TEXCOORD_0": 29,
            "TEXCOORD_1": 30
          },
          "indices": 31,
          "material": 6,
          "mode": 4
        }
      ]
    }
  ],
  "nodes": [
    {
      "children": [
        1
      ],
      "matrix": [
        0.667015552520752,
        -0.0810421854257582,
        -0.7406229972839355,
        0.0,
        -0.7352162003517151,
        0.08932854235172287,
        -0.6719208359718323,
        0.0,
        0.12061270326375961,
        0.9926996231079102,
        2.1348470171831616e-16,
        0.0,
        -39.11525344848633,
        7.419517993926995,
        30.36452865600586,
        1.0
      ],
      "name": "Sketchfab_model"
    },
    {
      "children": [
        2
      ],
      "matrix": [
        1.0,
        0.0,
        0.0,
        0.0,
        0.0,
        0.0,
        1.0,
        0.0,
        0.0,
        -1.0,
        0.0,
        0.0,
        0.0,
        0.0,
        0.0,
        1.0
      ],
      "name": "3a5c8897a2bd49429e101f59821590eb.fbx"
    },
    {
      "children": [
        3
      ],
      "name": "RootNode"
    },
    {
      "children": [
        4,
        5,
        6,
        7,
        8,
        9,
        10
      ],
      "matrix": [
        -74.01778711999553,
        4.692515725909766e-13,
        67.24111234846599,
        0.0,
        5.076563025398109e-06,
        99.99999999999972,
        5.588187066904952e-06,
        0.0,
        -67.24111234846579,
        7.549789854397454e-06,
        -74.01778711999533,
        0.0,
        5.333792938639931e-16,
        97.39629364013672,
        -4.5591583251953125,
        1.0
      ],
      "name": "BUDILNIK"
    },
    {
      "mesh": 0,
      "name": "BUDILNIK_korpus_0"
    },
    {
      "mesh": 1,
      "name": "BUDILNIK_hrom_0"
    },
    {
      "mesh": 2,
      "name": "BUDILNIK_ciferblat_0"
    },
    {
      "mesh": 3,
      "name": "BUDILNIK_chasovaya_0"
    },
    {
      "mesh": 4,
      "name": "BUDILNIK_minutnaya_0"
    },
    {
      "mesh": 5,
      "name": "BUDILNIK_Material_0"
    },
    {
      "mesh": 6,
      "name": "BUDILNIK_steklo_0"
    }
  ],
  "samplers": [
    {
      "magFilter": 9729,
      "minFilter": 9987,
      "wrapS": 10497,
      "wrapT": 10497
    }
  ],
  "scene": 0,
  "scenes": [
    {
      "name": "Sketchfab_Scene",
      "nodes": [
        0
      ]
    }
  ],
  "textures": [
    {
      "sampler": 0,
      "source": 0
    },
    {
      "sampler": 0,
      "source": 1
    },
    {
      "sampler": 0,
      "source": 2
    },
    {
      "sampler": 0,
      "source": 3
    },
    {
      "sampler": 0,
      "source": 4
    },
    {
      "sampler": 0,
      "source": 5
    },
    {
      "sampler": 0,
      "source": 6
    },
    {
      "sampler": 0,
      "source": 7
    },
    {
      "sampler": 0,
      "source": 8
    },
    {
      "sampler": 0,
      "source": 9
    },
    {
      "sampler": 0,
      "source": 10
    },
    {
      "sampler": 0,
      "source": 11
    },
    {
      "sampler": 0,
      "source": 12
    }
  ]
}
